<mxfile host="app.diagrams.net" agent="Mozilla/5.0 (Windows NT 10.0; Win64; x64) AppleWebKit/537.36 (KHTML, like Gecko) Chrome/141.0.0.0 Safari/537.36" version="28.2.8">
  <diagram name="Page-1" id="stXjWyJueaR-SP8L0BoA">
    <mxGraphModel grid="1" page="1" gridSize="10" guides="1" tooltips="1" connect="1" arrows="1" fold="1" pageScale="1" pageWidth="850" pageHeight="1100" math="0" shadow="0">
      <root>
        <mxCell id="0" />
        <mxCell id="1" parent="0" />
        <mxCell id="DbkKEM7EUpji5Gu2W7JE-1" value="&lt;div&gt;&lt;div&gt;&amp;lt;&amp;lt;abstract&amp;gt;&amp;gt;&lt;/div&gt;&lt;div&gt;User&lt;/div&gt;&lt;/div&gt;" style="swimlane;fontStyle=1;align=center;verticalAlign=top;childLayout=stackLayout;horizontal=1;startSize=40;horizontalStack=0;resizeParent=1;resizeParentMax=0;resizeLast=0;collapsible=1;marginBottom=0;whiteSpace=wrap;html=1;" vertex="1" parent="1">
          <mxGeometry x="270" y="90" width="280" height="224" as="geometry" />
        </mxCell>
        <mxCell id="DbkKEM7EUpji5Gu2W7JE-2" value="&lt;span style=&quot;text-align: center;&quot;&gt;Attributes:&amp;nbsp;&lt;/span&gt;&lt;div&gt;&lt;span style=&quot;text-align: center;&quot;&gt;userID: string&lt;/span&gt;&lt;div style=&quot;text-align: center;&quot;&gt;name: string&lt;/div&gt;&lt;div style=&quot;text-align: center;&quot;&gt;email: string&lt;/div&gt;&lt;div style=&quot;text-align: center;&quot;&gt;contactInfo: string&lt;/div&gt;&lt;div&gt;&lt;br&gt;&lt;/div&gt;&lt;/div&gt;" style="text;strokeColor=none;fillColor=none;align=left;verticalAlign=top;spacingLeft=4;spacingRight=4;overflow=hidden;rotatable=0;points=[[0,0.5],[1,0.5]];portConstraint=eastwest;whiteSpace=wrap;html=1;" vertex="1" parent="DbkKEM7EUpji5Gu2W7JE-1">
          <mxGeometry y="40" width="280" height="90" as="geometry" />
        </mxCell>
        <mxCell id="DbkKEM7EUpji5Gu2W7JE-3" value="" style="line;strokeWidth=1;fillColor=none;align=left;verticalAlign=middle;spacingTop=-1;spacingLeft=3;spacingRight=3;rotatable=0;labelPosition=right;points=[];portConstraint=eastwest;strokeColor=inherit;" vertex="1" parent="DbkKEM7EUpji5Gu2W7JE-1">
          <mxGeometry y="130" width="280" height="8" as="geometry" />
        </mxCell>
        <mxCell id="DbkKEM7EUpji5Gu2W7JE-4" value="&lt;div&gt;Methods:&lt;/div&gt;+ login()&lt;div&gt;+ logout()&lt;/div&gt;&lt;div&gt;+ updateProfile()&lt;br&gt;&lt;div&gt;&lt;br&gt;&lt;/div&gt;&lt;/div&gt;" style="text;strokeColor=none;fillColor=none;align=left;verticalAlign=top;spacingLeft=4;spacingRight=4;overflow=hidden;rotatable=0;points=[[0,0.5],[1,0.5]];portConstraint=eastwest;whiteSpace=wrap;html=1;" vertex="1" parent="DbkKEM7EUpji5Gu2W7JE-1">
          <mxGeometry y="138" width="280" height="86" as="geometry" />
        </mxCell>
        <mxCell id="DbkKEM7EUpji5Gu2W7JE-6" value="Patient" style="swimlane;fontStyle=1;align=center;verticalAlign=top;childLayout=stackLayout;horizontal=1;startSize=26;horizontalStack=0;resizeParent=1;resizeParentMax=0;resizeLast=0;collapsible=1;marginBottom=0;whiteSpace=wrap;html=1;" vertex="1" parent="1">
          <mxGeometry x="50" y="179" width="160" height="160" as="geometry" />
        </mxCell>
        <mxCell id="DbkKEM7EUpji5Gu2W7JE-7" value="medicalHistory: string" style="text;strokeColor=none;fillColor=none;align=left;verticalAlign=top;spacingLeft=4;spacingRight=4;overflow=hidden;rotatable=0;points=[[0,0.5],[1,0.5]];portConstraint=eastwest;whiteSpace=wrap;html=1;" vertex="1" parent="DbkKEM7EUpji5Gu2W7JE-6">
          <mxGeometry y="26" width="160" height="26" as="geometry" />
        </mxCell>
        <mxCell id="DbkKEM7EUpji5Gu2W7JE-8" value="" style="line;strokeWidth=1;fillColor=none;align=left;verticalAlign=middle;spacingTop=-1;spacingLeft=3;spacingRight=3;rotatable=0;labelPosition=right;points=[];portConstraint=eastwest;strokeColor=inherit;" vertex="1" parent="DbkKEM7EUpji5Gu2W7JE-6">
          <mxGeometry y="52" width="160" height="8" as="geometry" />
        </mxCell>
        <mxCell id="DbkKEM7EUpji5Gu2W7JE-9" value="+ scheduleAppointment()&lt;div&gt;+ makePayment()&lt;/div&gt;&lt;div&gt;+ provideFeedback()&lt;/div&gt;&lt;div&gt;+ viewEHR()&lt;/div&gt;&lt;div&gt;+ viewPrescriptions()&lt;/div&gt;" style="text;strokeColor=none;fillColor=none;align=left;verticalAlign=top;spacingLeft=4;spacingRight=4;overflow=hidden;rotatable=0;points=[[0,0.5],[1,0.5]];portConstraint=eastwest;whiteSpace=wrap;html=1;" vertex="1" parent="DbkKEM7EUpji5Gu2W7JE-6">
          <mxGeometry y="60" width="160" height="100" as="geometry" />
        </mxCell>
        <mxCell id="DbkKEM7EUpji5Gu2W7JE-18" value="Extends" style="endArrow=block;endSize=16;endFill=0;html=1;rounded=0;exitX=1;exitY=0;exitDx=0;exitDy=0;entryX=0;entryY=0;entryDx=0;entryDy=0;" edge="1" parent="1" source="DbkKEM7EUpji5Gu2W7JE-6" target="DbkKEM7EUpji5Gu2W7JE-1">
          <mxGeometry width="160" relative="1" as="geometry">
            <mxPoint x="210" y="230.5" as="sourcePoint" />
            <mxPoint x="370" y="230.5" as="targetPoint" />
          </mxGeometry>
        </mxCell>
        <mxCell id="DbkKEM7EUpji5Gu2W7JE-20" value="Extends" style="endArrow=block;endSize=16;endFill=0;html=1;rounded=0;exitX=0;exitY=0;exitDx=0;exitDy=0;entryX=1;entryY=0;entryDx=0;entryDy=0;" edge="1" parent="1" source="DbkKEM7EUpji5Gu2W7JE-21" target="DbkKEM7EUpji5Gu2W7JE-1">
          <mxGeometry width="160" relative="1" as="geometry">
            <mxPoint x="620.28" y="227.75" as="sourcePoint" />
            <mxPoint x="730" y="340" as="targetPoint" />
          </mxGeometry>
        </mxCell>
        <mxCell id="DbkKEM7EUpji5Gu2W7JE-21" value="HealthcareProvider" style="swimlane;fontStyle=1;align=center;verticalAlign=top;childLayout=stackLayout;horizontal=1;startSize=26;horizontalStack=0;resizeParent=1;resizeParentMax=0;resizeLast=0;collapsible=1;marginBottom=0;whiteSpace=wrap;html=1;" vertex="1" parent="1">
          <mxGeometry x="630" y="179" width="160" height="160" as="geometry" />
        </mxCell>
        <mxCell id="DbkKEM7EUpji5Gu2W7JE-22" value="specialty: string&lt;div&gt;availability: string[]&lt;/div&gt;" style="text;strokeColor=none;fillColor=none;align=left;verticalAlign=top;spacingLeft=4;spacingRight=4;overflow=hidden;rotatable=0;points=[[0,0.5],[1,0.5]];portConstraint=eastwest;whiteSpace=wrap;html=1;" vertex="1" parent="DbkKEM7EUpji5Gu2W7JE-21">
          <mxGeometry y="26" width="160" height="44" as="geometry" />
        </mxCell>
        <mxCell id="DbkKEM7EUpji5Gu2W7JE-23" value="" style="line;strokeWidth=1;fillColor=none;align=left;verticalAlign=middle;spacingTop=-1;spacingLeft=3;spacingRight=3;rotatable=0;labelPosition=right;points=[];portConstraint=eastwest;strokeColor=inherit;" vertex="1" parent="DbkKEM7EUpji5Gu2W7JE-21">
          <mxGeometry y="70" width="160" height="8" as="geometry" />
        </mxCell>
        <mxCell id="DbkKEM7EUpji5Gu2W7JE-24" value="+ manageSchedule()&lt;div&gt;+ conductConsultation()&lt;/div&gt;&lt;div&gt;+ updateEHR()&lt;/div&gt;&lt;div&gt;+ issuePrescription()&lt;/div&gt;" style="text;strokeColor=none;fillColor=none;align=left;verticalAlign=top;spacingLeft=4;spacingRight=4;overflow=hidden;rotatable=0;points=[[0,0.5],[1,0.5]];portConstraint=eastwest;whiteSpace=wrap;html=1;" vertex="1" parent="DbkKEM7EUpji5Gu2W7JE-21">
          <mxGeometry y="78" width="160" height="82" as="geometry" />
        </mxCell>
        <mxCell id="DbkKEM7EUpji5Gu2W7JE-25" value="Administrator" style="swimlane;fontStyle=1;align=center;verticalAlign=top;childLayout=stackLayout;horizontal=1;startSize=26;horizontalStack=0;resizeParent=1;resizeParentMax=0;resizeLast=0;collapsible=1;marginBottom=0;whiteSpace=wrap;html=1;" vertex="1" parent="1">
          <mxGeometry x="330" y="440" width="160" height="60" as="geometry" />
        </mxCell>
        <mxCell id="DbkKEM7EUpji5Gu2W7JE-27" value="" style="line;strokeWidth=1;fillColor=none;align=left;verticalAlign=middle;spacingTop=-1;spacingLeft=3;spacingRight=3;rotatable=0;labelPosition=right;points=[];portConstraint=eastwest;strokeColor=inherit;" vertex="1" parent="DbkKEM7EUpji5Gu2W7JE-25">
          <mxGeometry y="26" width="160" height="8" as="geometry" />
        </mxCell>
        <mxCell id="DbkKEM7EUpji5Gu2W7JE-28" value="+ method(type): type" style="text;strokeColor=none;fillColor=none;align=left;verticalAlign=top;spacingLeft=4;spacingRight=4;overflow=hidden;rotatable=0;points=[[0,0.5],[1,0.5]];portConstraint=eastwest;whiteSpace=wrap;html=1;" vertex="1" parent="DbkKEM7EUpji5Gu2W7JE-25">
          <mxGeometry y="34" width="160" height="26" as="geometry" />
        </mxCell>
        <mxCell id="DbkKEM7EUpji5Gu2W7JE-30" value="Extends" style="endArrow=block;endSize=16;endFill=0;html=1;rounded=0;exitX=0.5;exitY=0;exitDx=0;exitDy=0;entryX=0.499;entryY=1.071;entryDx=0;entryDy=0;entryPerimeter=0;" edge="1" parent="1" source="DbkKEM7EUpji5Gu2W7JE-25" target="DbkKEM7EUpji5Gu2W7JE-4">
          <mxGeometry width="160" relative="1" as="geometry">
            <mxPoint x="420" y="360" as="sourcePoint" />
            <mxPoint x="580" y="360" as="targetPoint" />
          </mxGeometry>
        </mxCell>
        <mxCell id="DbkKEM7EUpji5Gu2W7JE-31" value="Bill" style="swimlane;fontStyle=1;align=center;verticalAlign=top;childLayout=stackLayout;horizontal=1;startSize=26;horizontalStack=0;resizeParent=1;resizeParentMax=0;resizeLast=0;collapsible=1;marginBottom=0;whiteSpace=wrap;html=1;" vertex="1" parent="1">
          <mxGeometry x="50" y="400" width="160" height="170" as="geometry" />
        </mxCell>
        <mxCell id="DbkKEM7EUpji5Gu2W7JE-32" value="billID: string&lt;div&gt;amount: double&lt;/div&gt;&lt;div&gt;issueDate: Date&lt;/div&gt;&lt;div&gt;isPaid: boolean&lt;/div&gt;" style="text;strokeColor=none;fillColor=none;align=left;verticalAlign=top;spacingLeft=4;spacingRight=4;overflow=hidden;rotatable=0;points=[[0,0.5],[1,0.5]];portConstraint=eastwest;whiteSpace=wrap;html=1;" vertex="1" parent="DbkKEM7EUpji5Gu2W7JE-31">
          <mxGeometry y="26" width="160" height="74" as="geometry" />
        </mxCell>
        <mxCell id="DbkKEM7EUpji5Gu2W7JE-33" value="" style="line;strokeWidth=1;fillColor=none;align=left;verticalAlign=middle;spacingTop=-1;spacingLeft=3;spacingRight=3;rotatable=0;labelPosition=right;points=[];portConstraint=eastwest;strokeColor=inherit;" vertex="1" parent="DbkKEM7EUpji5Gu2W7JE-31">
          <mxGeometry y="100" width="160" height="8" as="geometry" />
        </mxCell>
        <mxCell id="DbkKEM7EUpji5Gu2W7JE-34" value="+ generateBill()&lt;div&gt;+ processPayment()&lt;/div&gt;" style="text;strokeColor=none;fillColor=none;align=left;verticalAlign=top;spacingLeft=4;spacingRight=4;overflow=hidden;rotatable=0;points=[[0,0.5],[1,0.5]];portConstraint=eastwest;whiteSpace=wrap;html=1;" vertex="1" parent="DbkKEM7EUpji5Gu2W7JE-31">
          <mxGeometry y="108" width="160" height="62" as="geometry" />
        </mxCell>
        <mxCell id="DbkKEM7EUpji5Gu2W7JE-35" value="Feedback" style="swimlane;fontStyle=1;align=center;verticalAlign=top;childLayout=stackLayout;horizontal=1;startSize=26;horizontalStack=0;resizeParent=1;resizeParentMax=0;resizeLast=0;collapsible=1;marginBottom=0;whiteSpace=wrap;html=1;" vertex="1" parent="1">
          <mxGeometry x="50" y="633" width="160" height="144" as="geometry" />
        </mxCell>
        <mxCell id="DbkKEM7EUpji5Gu2W7JE-36" value="feedbackID: string&lt;div&gt;rating: int&lt;/div&gt;&lt;div&gt;comments: string&lt;/div&gt;&lt;div&gt;dateSubmitted: Date&lt;/div&gt;" style="text;strokeColor=none;fillColor=none;align=left;verticalAlign=top;spacingLeft=4;spacingRight=4;overflow=hidden;rotatable=0;points=[[0,0.5],[1,0.5]];portConstraint=eastwest;whiteSpace=wrap;html=1;" vertex="1" parent="DbkKEM7EUpji5Gu2W7JE-35">
          <mxGeometry y="26" width="160" height="84" as="geometry" />
        </mxCell>
        <mxCell id="DbkKEM7EUpji5Gu2W7JE-37" value="" style="line;strokeWidth=1;fillColor=none;align=left;verticalAlign=middle;spacingTop=-1;spacingLeft=3;spacingRight=3;rotatable=0;labelPosition=right;points=[];portConstraint=eastwest;strokeColor=inherit;" vertex="1" parent="DbkKEM7EUpji5Gu2W7JE-35">
          <mxGeometry y="110" width="160" height="8" as="geometry" />
        </mxCell>
        <mxCell id="DbkKEM7EUpji5Gu2W7JE-38" value="+ submitFeedback()" style="text;strokeColor=none;fillColor=none;align=left;verticalAlign=top;spacingLeft=4;spacingRight=4;overflow=hidden;rotatable=0;points=[[0,0.5],[1,0.5]];portConstraint=eastwest;whiteSpace=wrap;html=1;" vertex="1" parent="DbkKEM7EUpji5Gu2W7JE-35">
          <mxGeometry y="118" width="160" height="26" as="geometry" />
        </mxCell>
        <mxCell id="DbkKEM7EUpji5Gu2W7JE-43" value="Appointment" style="swimlane;fontStyle=1;align=center;verticalAlign=top;childLayout=stackLayout;horizontal=1;startSize=33;horizontalStack=0;resizeParent=1;resizeParentMax=0;resizeLast=0;collapsible=1;marginBottom=0;whiteSpace=wrap;html=1;" vertex="1" parent="1">
          <mxGeometry x="630" y="627" width="160" height="157" as="geometry" />
        </mxCell>
        <mxCell id="DbkKEM7EUpji5Gu2W7JE-44" value="appointmentID: string&lt;div&gt;dateTime: DateTime&lt;/div&gt;&lt;div&gt;status: string&lt;/div&gt;" style="text;strokeColor=none;fillColor=none;align=left;verticalAlign=top;spacingLeft=4;spacingRight=4;overflow=hidden;rotatable=0;points=[[0,0.5],[1,0.5]];portConstraint=eastwest;whiteSpace=wrap;html=1;" vertex="1" parent="DbkKEM7EUpji5Gu2W7JE-43">
          <mxGeometry y="33" width="160" height="54" as="geometry" />
        </mxCell>
        <mxCell id="DbkKEM7EUpji5Gu2W7JE-45" value="" style="line;strokeWidth=1;fillColor=none;align=left;verticalAlign=middle;spacingTop=-1;spacingLeft=3;spacingRight=3;rotatable=0;labelPosition=right;points=[];portConstraint=eastwest;strokeColor=inherit;" vertex="1" parent="DbkKEM7EUpji5Gu2W7JE-43">
          <mxGeometry y="87" width="160" height="8" as="geometry" />
        </mxCell>
        <mxCell id="DbkKEM7EUpji5Gu2W7JE-46" value="+ createAppointment()&lt;div&gt;+ cancelAppointment()&lt;/div&gt;&lt;div&gt;+ completeAppointment()&lt;/div&gt;" style="text;strokeColor=none;fillColor=none;align=left;verticalAlign=top;spacingLeft=4;spacingRight=4;overflow=hidden;rotatable=0;points=[[0,0.5],[1,0.5]];portConstraint=eastwest;whiteSpace=wrap;html=1;" vertex="1" parent="DbkKEM7EUpji5Gu2W7JE-43">
          <mxGeometry y="95" width="160" height="62" as="geometry" />
        </mxCell>
        <mxCell id="DbkKEM7EUpji5Gu2W7JE-47" value="Prescription" style="swimlane;fontStyle=1;align=center;verticalAlign=top;childLayout=stackLayout;horizontal=1;startSize=26;horizontalStack=0;resizeParent=1;resizeParentMax=0;resizeLast=0;collapsible=1;marginBottom=0;whiteSpace=wrap;html=1;" vertex="1" parent="1">
          <mxGeometry x="330" y="607" width="160" height="170" as="geometry" />
        </mxCell>
        <mxCell id="DbkKEM7EUpji5Gu2W7JE-48" value="prescriptionID: string&lt;div&gt;medication: string&lt;/div&gt;&lt;div&gt;dosage: string&lt;/div&gt;&lt;div&gt;dateIssued: Date&lt;/div&gt;" style="text;strokeColor=none;fillColor=none;align=left;verticalAlign=top;spacingLeft=4;spacingRight=4;overflow=hidden;rotatable=0;points=[[0,0.5],[1,0.5]];portConstraint=eastwest;whiteSpace=wrap;html=1;" vertex="1" parent="DbkKEM7EUpji5Gu2W7JE-47">
          <mxGeometry y="26" width="160" height="84" as="geometry" />
        </mxCell>
        <mxCell id="DbkKEM7EUpji5Gu2W7JE-49" value="" style="line;strokeWidth=1;fillColor=none;align=left;verticalAlign=middle;spacingTop=-1;spacingLeft=3;spacingRight=3;rotatable=0;labelPosition=right;points=[];portConstraint=eastwest;strokeColor=inherit;" vertex="1" parent="DbkKEM7EUpji5Gu2W7JE-47">
          <mxGeometry y="110" width="160" height="8" as="geometry" />
        </mxCell>
        <mxCell id="DbkKEM7EUpji5Gu2W7JE-50" value="+ issue()&lt;div&gt;+ shareWithPharmacy()&lt;/div&gt;" style="text;strokeColor=none;fillColor=none;align=left;verticalAlign=top;spacingLeft=4;spacingRight=4;overflow=hidden;rotatable=0;points=[[0,0.5],[1,0.5]];portConstraint=eastwest;whiteSpace=wrap;html=1;" vertex="1" parent="DbkKEM7EUpji5Gu2W7JE-47">
          <mxGeometry y="118" width="160" height="52" as="geometry" />
        </mxCell>
        <mxCell id="DbkKEM7EUpji5Gu2W7JE-39" value="ElectronicHealthRecord (EHR)" style="swimlane;fontStyle=1;align=center;verticalAlign=top;childLayout=stackLayout;horizontal=1;startSize=26;horizontalStack=0;resizeParent=1;resizeParentMax=0;resizeLast=0;collapsible=1;marginBottom=0;whiteSpace=wrap;html=1;" vertex="1" parent="1">
          <mxGeometry x="610" y="390" width="200" height="190" as="geometry" />
        </mxCell>
        <mxCell id="DbkKEM7EUpji5Gu2W7JE-40" value="ehrID: string&lt;div&gt;diagnoses: string[]&lt;/div&gt;&lt;div&gt;treatments: string[]&lt;/div&gt;&lt;div&gt;prescriptionsList: string[]&lt;/div&gt;" style="text;strokeColor=none;fillColor=none;align=left;verticalAlign=top;spacingLeft=4;spacingRight=4;overflow=hidden;rotatable=0;points=[[0,0.5],[1,0.5]];portConstraint=eastwest;whiteSpace=wrap;html=1;" vertex="1" parent="DbkKEM7EUpji5Gu2W7JE-39">
          <mxGeometry y="26" width="200" height="84" as="geometry" />
        </mxCell>
        <mxCell id="DbkKEM7EUpji5Gu2W7JE-41" value="" style="line;strokeWidth=1;fillColor=none;align=left;verticalAlign=middle;spacingTop=-1;spacingLeft=3;spacingRight=3;rotatable=0;labelPosition=right;points=[];portConstraint=eastwest;strokeColor=inherit;" vertex="1" parent="DbkKEM7EUpji5Gu2W7JE-39">
          <mxGeometry y="110" width="200" height="8" as="geometry" />
        </mxCell>
        <mxCell id="DbkKEM7EUpji5Gu2W7JE-42" value="+ addDiagnosis(diag: string)&lt;div&gt;+ addTreatment(treat: string)&lt;/div&gt;&lt;div&gt;+ addPrescription(pres: string)&lt;/div&gt;" style="text;strokeColor=none;fillColor=none;align=left;verticalAlign=top;spacingLeft=4;spacingRight=4;overflow=hidden;rotatable=0;points=[[0,0.5],[1,0.5]];portConstraint=eastwest;whiteSpace=wrap;html=1;" vertex="1" parent="DbkKEM7EUpji5Gu2W7JE-39">
          <mxGeometry y="118" width="200" height="72" as="geometry" />
        </mxCell>
        <mxCell id="DbkKEM7EUpji5Gu2W7JE-51" style="edgeStyle=orthogonalEdgeStyle;rounded=0;orthogonalLoop=1;jettySize=auto;html=1;exitX=0.5;exitY=0;exitDx=0;exitDy=0;entryX=0.344;entryY=0.054;entryDx=0;entryDy=0;entryPerimeter=0;" edge="1" parent="1" source="DbkKEM7EUpji5Gu2W7JE-39" target="DbkKEM7EUpji5Gu2W7JE-39">
          <mxGeometry relative="1" as="geometry" />
        </mxCell>
        <mxCell id="DbkKEM7EUpji5Gu2W7JE-61" value="" style="endArrow=diamondThin;endFill=0;endSize=24;html=1;rounded=0;exitX=0.05;exitY=0.16;exitDx=0;exitDy=0;exitPerimeter=0;entryX=0.96;entryY=0.96;entryDx=0;entryDy=0;entryPerimeter=0;" edge="1" parent="1" source="DbkKEM7EUpji5Gu2W7JE-43" target="DbkKEM7EUpji5Gu2W7JE-9">
          <mxGeometry width="160" relative="1" as="geometry">
            <mxPoint x="540" y="600" as="sourcePoint" />
            <mxPoint x="700" y="600" as="targetPoint" />
          </mxGeometry>
        </mxCell>
        <mxCell id="DbkKEM7EUpji5Gu2W7JE-63" value="" style="endArrow=diamondThin;endFill=0;endSize=24;html=1;rounded=0;exitX=0.972;exitY=0.076;exitDx=0;exitDy=0;exitPerimeter=0;entryX=0.091;entryY=0.026;entryDx=0;entryDy=0;entryPerimeter=0;" edge="1" parent="1" source="DbkKEM7EUpji5Gu2W7JE-6" target="DbkKEM7EUpji5Gu2W7JE-43">
          <mxGeometry width="160" relative="1" as="geometry">
            <mxPoint x="230" y="230" as="sourcePoint" />
            <mxPoint x="430" y="550" as="targetPoint" />
          </mxGeometry>
        </mxCell>
        <mxCell id="DbkKEM7EUpji5Gu2W7JE-67" value="1&lt;div&gt;&lt;br&gt;&lt;/div&gt;" style="text;html=1;whiteSpace=wrap;strokeColor=none;fillColor=none;align=center;verticalAlign=middle;rounded=0;" vertex="1" parent="1">
          <mxGeometry x="180" y="180" width="80" height="30" as="geometry" />
        </mxCell>
        <mxCell id="DbkKEM7EUpji5Gu2W7JE-70" value="" style="endArrow=diamondThin;endFill=0;endSize=24;html=1;rounded=0;entryX=0.051;entryY=0.096;entryDx=0;entryDy=0;entryPerimeter=0;exitX=0.846;exitY=-0.005;exitDx=0;exitDy=0;exitPerimeter=0;" edge="1" parent="1" source="DbkKEM7EUpji5Gu2W7JE-43" target="DbkKEM7EUpji5Gu2W7JE-21">
          <mxGeometry width="160" relative="1" as="geometry">
            <mxPoint x="90" y="600" as="sourcePoint" />
            <mxPoint x="250" y="600" as="targetPoint" />
          </mxGeometry>
        </mxCell>
        <mxCell id="DbkKEM7EUpji5Gu2W7JE-71" value="1" style="text;html=1;whiteSpace=wrap;strokeColor=none;fillColor=none;align=center;verticalAlign=middle;rounded=0;" vertex="1" parent="1">
          <mxGeometry x="590" y="180" width="60" height="30" as="geometry" />
        </mxCell>
        <mxCell id="DbkKEM7EUpji5Gu2W7JE-72" value="0..*" style="text;html=1;whiteSpace=wrap;strokeColor=none;fillColor=none;align=center;verticalAlign=middle;rounded=0;" vertex="1" parent="1">
          <mxGeometry x="580" y="633" width="60" height="30" as="geometry" />
        </mxCell>
        <mxCell id="DbkKEM7EUpji5Gu2W7JE-75" value="0..*" style="text;html=1;whiteSpace=wrap;strokeColor=none;fillColor=none;align=center;verticalAlign=middle;rounded=0;" vertex="1" parent="1">
          <mxGeometry x="760" y="603" width="60" height="30" as="geometry" />
        </mxCell>
        <mxCell id="DbkKEM7EUpji5Gu2W7JE-76" value="" style="endArrow=diamondThin;endFill=0;endSize=24;html=1;rounded=0;entryX=0.15;entryY=0.011;entryDx=0;entryDy=0;entryPerimeter=0;exitX=0.096;exitY=0.022;exitDx=0;exitDy=0;exitPerimeter=0;" edge="1" parent="1" source="DbkKEM7EUpji5Gu2W7JE-39" target="DbkKEM7EUpji5Gu2W7JE-6">
          <mxGeometry width="160" relative="1" as="geometry">
            <mxPoint x="70" y="600" as="sourcePoint" />
            <mxPoint x="114" y="259" as="targetPoint" />
          </mxGeometry>
        </mxCell>
        <mxCell id="DbkKEM7EUpji5Gu2W7JE-77" value="1" style="text;html=1;whiteSpace=wrap;strokeColor=none;fillColor=none;align=center;verticalAlign=middle;rounded=0;" vertex="1" parent="1">
          <mxGeometry x="50" y="150" width="60" height="30" as="geometry" />
        </mxCell>
        <mxCell id="DbkKEM7EUpji5Gu2W7JE-78" value="1" style="text;html=1;whiteSpace=wrap;strokeColor=none;fillColor=none;align=center;verticalAlign=middle;rounded=0;" vertex="1" parent="1">
          <mxGeometry x="600" y="360" width="60" height="30" as="geometry" />
        </mxCell>
        <mxCell id="DbkKEM7EUpji5Gu2W7JE-80" value="1" style="text;html=1;whiteSpace=wrap;strokeColor=none;fillColor=none;align=center;verticalAlign=middle;rounded=0;" vertex="1" parent="1">
          <mxGeometry x="650" y="600" width="60" height="30" as="geometry" />
        </mxCell>
        <mxCell id="DbkKEM7EUpji5Gu2W7JE-81" value="0..*" style="text;html=1;whiteSpace=wrap;strokeColor=none;fillColor=none;align=center;verticalAlign=middle;rounded=0;" vertex="1" parent="1">
          <mxGeometry x="430" y="580" width="60" height="30" as="geometry" />
        </mxCell>
        <mxCell id="DbkKEM7EUpji5Gu2W7JE-83" value="" style="endArrow=open;endFill=1;endSize=12;html=1;rounded=0;entryX=0.611;entryY=0.017;entryDx=0;entryDy=0;entryPerimeter=0;exitX=0.597;exitY=0.033;exitDx=0;exitDy=0;exitPerimeter=0;" edge="1" parent="1" source="DbkKEM7EUpji5Gu2W7JE-43" target="DbkKEM7EUpji5Gu2W7JE-47">
          <mxGeometry width="160" relative="1" as="geometry">
            <mxPoint x="470" y="850" as="sourcePoint" />
            <mxPoint x="630" y="850" as="targetPoint" />
          </mxGeometry>
        </mxCell>
        <mxCell id="DbkKEM7EUpji5Gu2W7JE-84" value="" style="endArrow=open;endFill=1;endSize=12;html=1;rounded=0;exitX=-0.014;exitY=0.099;exitDx=0;exitDy=0;exitPerimeter=0;entryX=0.977;entryY=0.089;entryDx=0;entryDy=0;entryPerimeter=0;" edge="1" parent="1" source="DbkKEM7EUpji5Gu2W7JE-43" target="DbkKEM7EUpji5Gu2W7JE-31">
          <mxGeometry width="160" relative="1" as="geometry">
            <mxPoint x="140" y="820" as="sourcePoint" />
            <mxPoint x="260" y="580" as="targetPoint" />
          </mxGeometry>
        </mxCell>
        <mxCell id="DbkKEM7EUpji5Gu2W7JE-85" value="1" style="text;html=1;whiteSpace=wrap;strokeColor=none;fillColor=none;align=center;verticalAlign=middle;rounded=0;" vertex="1" parent="1">
          <mxGeometry x="190" y="380" width="60" height="30" as="geometry" />
        </mxCell>
        <mxCell id="DbkKEM7EUpji5Gu2W7JE-87" value="1" style="text;html=1;whiteSpace=wrap;strokeColor=none;fillColor=none;align=center;verticalAlign=middle;rounded=0;" vertex="1" parent="1">
          <mxGeometry x="620" y="633" width="60" height="30" as="geometry" />
        </mxCell>
        <mxCell id="DbkKEM7EUpji5Gu2W7JE-88" value="" style="endArrow=open;endFill=1;endSize=12;html=1;rounded=0;exitX=0.683;exitY=0.048;exitDx=0;exitDy=0;exitPerimeter=0;entryX=0.633;entryY=0.025;entryDx=0;entryDy=0;entryPerimeter=0;" edge="1" parent="1" source="DbkKEM7EUpji5Gu2W7JE-6" target="DbkKEM7EUpji5Gu2W7JE-35">
          <mxGeometry width="160" relative="1" as="geometry">
            <mxPoint x="230" y="560" as="sourcePoint" />
            <mxPoint x="390" y="560" as="targetPoint" />
          </mxGeometry>
        </mxCell>
        <mxCell id="DbkKEM7EUpji5Gu2W7JE-89" value="0..*" style="text;html=1;whiteSpace=wrap;strokeColor=none;fillColor=none;align=center;verticalAlign=middle;rounded=0;" vertex="1" parent="1">
          <mxGeometry x="150" y="610" width="60" height="30" as="geometry" />
        </mxCell>
        <mxCell id="DbkKEM7EUpji5Gu2W7JE-90" value="1" style="text;html=1;whiteSpace=wrap;strokeColor=none;fillColor=none;align=center;verticalAlign=middle;rounded=0;" vertex="1" parent="1">
          <mxGeometry x="130" y="150" width="60" height="30" as="geometry" />
        </mxCell>
      </root>
    </mxGraphModel>
  </diagram>
</mxfile>
